<svg xmlns="http://www.w3.org/2000/svg" width="250" height="58" viewBox="0 0 250 58">
  <metadata><?xpacket begin="﻿" id="W5M0MpCehiHzreSzNTczkc9d"?>
<x:xmpmeta xmlns:x="adobe:ns:meta/" x:xmptk="Adobe XMP Core 5.6-c140 79.160451, 2017/05/06-01:08:21        ">
   <rdf:RDF xmlns:rdf="http://www.w3.org/1999/02/22-rdf-syntax-ns#">
      <rdf:Description rdf:about=""/>
   </rdf:RDF>
</x:xmpmeta>
                                                                                                    
                                                                                                    
                                                                                                    
                                                                                                    
                                                                                                    
                                                                                                    
                                                                                                    
                                                                                                    
                                                                                                    
                                                                                                    
                                                                                                    
                                                                                                    
                                                                                                    
                                                                                                    
                                                                                                    
                                                                                                    
                                                                                                    
                                                                                                    
                                                                                                    
                                                                                                    
                           
<?xpacket end="w"?></metadata>
<defs>
    <style>
      .cls-1 {
        fill: #8b8172;
        fill-rule: evenodd;
      }
    </style>
  </defs>
  <path id="logo" class="cls-1" d="M74.438,125.793v-1.01a11.852,11.852,0,0,0,3.016-.293,1.857,1.857,0,0,0,1.409-1.906,6.255,6.255,0,0,0-.5-2.052q-0.5-1.318-1.876-4.378L67.256,95.58l-8.377,22.272q-0.555,1.476-.843,2.5a6.5,6.5,0,0,0-.288,1.67,2.313,2.313,0,0,0,1.467,2.346,8.931,8.931,0,0,0,2.845.411v1.01H50v-1.01a5.446,5.446,0,0,0,2.764-1.01,11.448,11.448,0,0,0,2.677-4.532L68.5,86h0.887l14.571,32.483q1.843,4.132,2.951,5.144a5.2,5.2,0,0,0,3.239,1.156v1.01H74.438Zm132.983-39.1h33.336l0.317,10.042h-1.412q-1.035-4.732-2.634-6.161t-6.721-1.428h-3.281v30.242q0,3.414,1.064,4.233t4.664,1.076v1.1H215.568v-1.1q3.741-.287,4.663-1.235t0.922-4.767V89.145h-3.311q-4.895,0-6.664,1.414t-2.662,6.175h-1.44Zm63.246,0.26a32.348,32.348,0,0,0,3.771.952,2.965,2.965,0,0,0,1.582-.462A2.408,2.408,0,0,0,277.057,86H278.3l0.547,13.273h-1.353a19.158,19.158,0,0,0-3.081-6.377,11.819,11.819,0,0,0-9.758-4.559,12.385,12.385,0,0,0-10.119,4.906q-3.93,4.905-3.929,13.5,0,7.9,4.131,12.624a13.306,13.306,0,0,0,10.464,4.719,16.761,16.761,0,0,0,8.434-2.194,25.3,25.3,0,0,0,4.866-3.752l1.093,1.1a19.741,19.741,0,0,1-4.865,4.356,19.509,19.509,0,0,1-10.737,3.176q-9.5,0-15.084-6.089a20.018,20.018,0,0,1-5.152-14.054,20.481,20.481,0,0,1,5.439-14.486Q254.921,86,264.1,86A24.043,24.043,0,0,1,270.667,86.953ZM282.556,124.7q3.6-.258,4.662-1.076t1.065-4.233V93.1q0-3.26-1.065-4.2t-4.662-1.111v-1.1H300v1.1q-3.6.173-4.664,1.111t-1.064,4.2v26.288q0,3.414,1.064,4.233T300,124.7v1.1H282.556v-1.1ZM92.2,124.7q3.6-.258,4.662-1.076t1.066-4.233V93.1q0-3.26-1.065-4.2T92.2,87.789v-1.1h17.444v1.1q-3.6.173-4.664,1.111t-1.065,4.2v26.288q0,3.414,1.065,4.233t4.664,1.076v1.1H92.2v-1.1Zm23.977,0q3.6-.258,4.663-1.076t1.065-4.233V93.1q0-3.26-1.065-4.2t-4.663-1.111v-1.1h17.445v1.1q-3.6.173-4.664,1.111t-1.065,4.2v26.288q0,3.414,1.065,4.233t4.664,1.076v1.1H116.176v-1.1Zm77.723,1.1v-1.01a11.855,11.855,0,0,0,3.017-.293,1.857,1.857,0,0,0,1.409-1.906,6.287,6.287,0,0,0-.5-2.052q-0.5-1.318-1.876-4.378L186.717,95.58l-8.376,22.272q-0.555,1.476-.843,2.5a6.516,6.516,0,0,0-.287,1.67,2.312,2.312,0,0,0,1.465,2.346,8.936,8.936,0,0,0,2.845.411v1.01H169.462v-1.01a5.447,5.447,0,0,0,2.763-1.01,11.444,11.444,0,0,0,2.677-4.532L187.958,86h0.887l14.571,32.483q1.842,4.132,2.951,5.144a5.2,5.2,0,0,0,3.238,1.156v1.01H193.9ZM58.269,114.761v1.861c6.674,0.045,7.571.047,8.855-.054a14.5,14.5,0,0,0,3.452-2.02C69.666,114.8,67.528,114.838,58.269,114.761Zm119.629,0v1.861c6.673,0.045,7.569.047,8.855-.054a14.526,14.526,0,0,0,3.451-2.02C189.3,114.8,187.156,114.838,177.9,114.761Zm-75.4-8.306v1.862c6.674,0.045,11.746.09,13.031-.013a14.463,14.463,0,0,0,3.452-2.019C118.07,106.538,111.755,106.532,102.5,106.455Zm52.933,16.956q-1.579.072-3.443,0.074-2.017,0-2.753-.03c-0.49-.019-0.955-0.057-1.4-0.114a1.861,1.861,0,0,1-1.455-.708,3.045,3.045,0,0,1-.331-1.544V92.694q0-2.942,1.108-3.838t4.361-1.067v-1.1H134.88v1.1q3.281,0.231,4.231,1.2t0.95,4.112v26.288q0,3.328-.964,4.146T134.88,124.7v1.1h20.549v-2.382Zm29.168,1.535c-7.059-1.942-16.938-2.428-29.428-1.5-3.621.269-8.584,0.506-12.477,0.606l-0.324,1.738c2.7-.021,8.754-0.076,11.473,0,9.68,0.271,14.94.536,21.14,2.24,7.851,2.16,11.644,5.475,10.7,9.638-0.468,2.06-2.051,4.181-4.723,6.329l4.526-2.795c4.63-2.923,7.271-5.7,7.851-8.239C194.109,129.558,191.007,126.708,184.6,124.946Zm60.078,11.824a1.334,1.334,0,0,0,.707-0.2,1.181,1.181,0,0,0,.141-0.733v-3.968a0.914,0.914,0,0,0-.158-0.641,1.222,1.222,0,0,0-.69-0.182v-0.17h2.673v0.17a1.225,1.225,0,0,0-.688.182,0.908,0.908,0,0,0-.159.641v1.785h2.927v-1.785a0.921,0.921,0,0,0-.156-0.641,1.212,1.212,0,0,0-.691-0.182v-0.17h2.673v0.17a1.222,1.222,0,0,0-.69.182,0.914,0.914,0,0,0-.158.641v4.075a0.89,0.89,0,0,0,.158.639,1.305,1.305,0,0,0,.69.185v0.169h-2.673V136.77a1.271,1.271,0,0,0,.708-0.2,1.2,1.2,0,0,0,.139-0.734v-1.78H246.5v1.887a0.89,0.89,0,0,0,.159.641,1.266,1.266,0,0,0,.688.183v0.169h-2.673V136.77Zm9.988-5.212a3.359,3.359,0,0,1,4.38,0,3.329,3.329,0,0,1-.032,4.72,3.158,3.158,0,0,1-2.161.788,3.046,3.046,0,0,1-3.156-3.16A3.028,3.028,0,0,1,254.663,131.558Zm0.72,4.489a1.87,1.87,0,0,0,1.47.691,1.892,1.892,0,0,0,1.458-.673,4.132,4.132,0,0,0-.007-4.32,1.909,1.909,0,0,0-1.451-.666,1.871,1.871,0,0,0-1.467.692A4.112,4.112,0,0,0,255.383,136.047Zm7.018,0.723a1.491,1.491,0,0,0,.689-0.18,0.871,0.871,0,0,0,.158-0.644v-4.075a0.914,0.914,0,0,0-.156-0.637,1.178,1.178,0,0,0-.691-0.186v-0.17h2.719v0.17a1.359,1.359,0,0,0-.712.166,0.73,0.73,0,0,0-.182.594v4.4a0.469,0.469,0,0,0,.054.24,0.316,0.316,0,0,0,.238.11c0.072,0.008.149,0.014,0.229,0.016s0.23,0.006.45,0.006a4.946,4.946,0,0,0,1.738-.2,2.132,2.132,0,0,0,.876-1.029h0.245l-0.471,1.587H262.4V136.77Zm7.86,0a1.5,1.5,0,0,0,.687-0.18,0.865,0.865,0,0,0,.16-0.644v-4.075a0.918,0.918,0,0,0-.155-0.644,1.232,1.232,0,0,0-.692-0.179v-0.17h2.6a5.353,5.353,0,0,1,2.22.412,2.654,2.654,0,0,1,1.637,2.639,2.994,2.994,0,0,1-.294,1.3,2.7,2.7,0,0,1-.887,1.042,3.049,3.049,0,0,1-.78.407,5.533,5.533,0,0,1-1.817.259h-2.677V136.77Zm1.941-.242a1.031,1.031,0,0,0,.477.072,3.646,3.646,0,0,0,1.859-.426,2.372,2.372,0,0,0,1.12-2.234,2.516,2.516,0,0,0-.922-2.122,3.341,3.341,0,0,0-2.095-.609,0.972,0.972,0,0,0-.439.067,0.316,0.316,0,0,0-.115.3v4.66A0.323,0.323,0,0,0,272.2,136.528Zm6.945,0.242a1.67,1.67,0,0,0,.762-0.167,0.832,0.832,0,0,0,.174-0.657v-4.075a0.857,0.857,0,0,0-.174-0.651,1.418,1.418,0,0,0-.762-0.172v-0.17H282v0.17a1.42,1.42,0,0,0-.763.172,0.862,0.862,0,0,0-.174.651v4.075a0.836,0.836,0,0,0,.174.657,1.671,1.671,0,0,0,.763.167v0.169h-2.852V136.77Zm1.767-6.621a0.5,0.5,0,0,1-.68,0,0.438,0.438,0,0,1,0-.644,0.5,0.5,0,0,1,.68,0A0.445,0.445,0,0,1,280.914,130.149Zm3.322,6.621a1.2,1.2,0,0,0,.767-0.257,1.611,1.611,0,0,0,.169-0.924v-4.036l-0.131-.147a1.044,1.044,0,0,0-.36-0.293,1.41,1.41,0,0,0-.445-0.065v-0.17h1.644l3.72,4.384v-3.045a1.412,1.412,0,0,0-.236-0.978,1.223,1.223,0,0,0-.687-0.191v-0.17h2.264v0.17a1.144,1.144,0,0,0-.734.255,1.5,1.5,0,0,0-.184.922v4.822h-0.165l-4.262-5.024v3.567a1.438,1.438,0,0,0,.23.978,1.212,1.212,0,0,0,.673.2v0.169h-2.263V136.77Zm13.445-5.852a4.679,4.679,0,0,0,.621.148,0.448,0.448,0,0,0,.295-0.077,0.613,0.613,0,0,0,.148-0.219h0.211l0.076,1.929H298.81a3.481,3.481,0,0,0-.611-0.994,2,2,0,0,0-1.482-.572,2.3,2.3,0,0,0-1.631.668,2.94,2.94,0,0,0-.7,2.2,2.7,2.7,0,0,0,.7,1.977,2.338,2.338,0,0,0,1.732.712,3.327,3.327,0,0,0,.409-0.031,2.805,2.805,0,0,0,.447-0.1,1.336,1.336,0,0,0,.428-0.185,0.3,0.3,0,0,0,.085-0.23V134.69a0.913,0.913,0,0,0-.158-0.662,1.323,1.323,0,0,0-.689-0.162V133.7h2.456v0.17a0.961,0.961,0,0,0-.476.112,0.7,0.7,0,0,0-.2.591v1.8a1.3,1.3,0,0,1-.831.43,5.178,5.178,0,0,1-1.6.269,3.672,3.672,0,0,1-2.381-.784,2.824,2.824,0,0,1-1.068-2.317,3.1,3.1,0,0,1,.852-2.192,3.235,3.235,0,0,1,2.484-1.007A4.18,4.18,0,0,1,297.681,130.918Z" transform="translate(-50 -86)"/>
</svg>
